<svg xmlns="http://www.w3.org/2000/svg" xmlns:xlink="http://www.w3.org/1999/xlink" fill="none" version="1.1" width="23.876441955566406" height="23.876441955566406" viewBox="0 0 23.876441955566406 23.876441955566406"><defs><clipPath id="master_svg0_0_207"><rect x="0" y="0" width="23.876441955566406" height="23.876441955566406" rx="0"/></clipPath></defs><g clip-path="url(#master_svg0_0_207)"><g><path d="M20.3788,0C20.3788,0,3.49753,0,3.49753,0C1.56914,0,0,1.56914,0,3.49753C0,3.49753,0,20.3788,0,20.3788C0,22.3073,1.56914,23.8764,3.49753,23.8764C3.49753,23.8764,10.5392,23.8764,10.5392,23.8764C10.5392,23.8764,10.5392,15.4358,10.5392,15.4358C10.5392,15.4358,7.74119,15.4358,7.74119,15.4358C7.74119,15.4358,7.74119,11.2387,7.74119,11.2387C7.74119,11.2387,10.5392,11.2387,10.5392,11.2387C10.5392,11.2387,10.5392,8.39406,10.5392,8.39406C10.5392,6.07969,12.4219,4.19703,14.7362,4.19703C14.7362,4.19703,18.98,4.19703,18.98,4.19703C18.98,4.19703,18.98,8.39406,18.98,8.39406C18.98,8.39406,14.7362,8.39406,14.7362,8.39406C14.7362,8.39406,14.7362,11.2387,14.7362,11.2387C14.7362,11.2387,18.98,11.2387,18.98,11.2387C18.98,11.2387,18.2804,15.4358,18.2804,15.4358C18.2804,15.4358,14.7362,15.4358,14.7362,15.4358C14.7362,15.4358,14.7362,23.8764,14.7362,23.8764C14.7362,23.8764,20.3788,23.8764,20.3788,23.8764C22.3073,23.8764,23.8764,22.3073,23.8764,20.3788C23.8764,20.3788,23.8764,3.49753,23.8764,3.49753C23.8764,1.56914,22.3073,0,20.3788,0C20.3788,0,20.3788,0,20.3788,0Z" fill="#D9D9D9" fill-opacity="1"/></g></g></svg>