<svg xmlns="http://www.w3.org/2000/svg" xmlns:xlink="http://www.w3.org/1999/xlink" fill="none" version="1.1" width="23.876441955566406" height="23.876441955566406" viewBox="0 0 23.876441955566406 23.876441955566406"><defs><clipPath id="master_svg0_0_196"><rect x="0" y="0" width="23.876441955566406" height="23.876441955566406" rx="0"/></clipPath></defs><g clip-path="url(#master_svg0_0_196)"><g><path d="M17.9073,0C17.9073,0,5.96911,0,5.96911,0C2.6864,0,0,2.68522,0,5.96911C0,5.96911,0,17.9073,0,17.9073C0,21.19,2.6864,23.8764,5.96911,23.8764C5.96911,23.8764,17.9073,23.8764,17.9073,23.8764C21.19,23.8764,23.8764,21.19,23.8764,17.9073C23.8764,17.9073,23.8764,5.96911,23.8764,5.96911C23.8764,2.68522,21.19,0,17.9073,0C17.9073,0,17.9073,0,17.9073,0ZM11.9382,16.9123C9.19062,16.9123,6.96386,14.6846,6.96386,11.9382C6.96386,9.19062,9.19062,6.96386,11.9382,6.96386C14.6846,6.96386,16.9126,9.19062,16.9126,11.9382C16.9126,14.6846,14.6846,16.9123,11.9382,16.9123C11.9382,16.9123,11.9382,16.9123,11.9382,16.9123ZM18.4049,6.96386C17.5799,6.96386,16.9126,6.29561,16.9126,5.47159C16.9126,4.64756,17.5799,3.97931,18.4049,3.97931C19.2298,3.97931,19.8971,4.64756,19.8971,5.47159C19.8971,6.29561,19.2298,6.96386,18.4049,6.96386C18.4049,6.96386,18.4049,6.96386,18.4049,6.96386Z" fill="#D9D9D9" fill-opacity="1"/></g></g></svg>