<svg xmlns="http://www.w3.org/2000/svg" xmlns:xlink="http://www.w3.org/1999/xlink" fill="none" version="1.1" width="23.876441955566406" height="23.876441955566406" viewBox="0 0 23.876441955566406 23.876441955566406"><defs><clipPath id="master_svg0_0_164"><rect x="0" y="0" width="23.876441955566406" height="23.876441955566406" rx="0"/></clipPath><mask id="master_svg1_0_166" style="mask-type:alpha" maskUnits="userSpaceOnUse"><g><g><path d="M23.8764,0C23.8764,0,0,0,0,0C0,0,0,23.8764,0,23.8764C0,23.8764,23.8764,23.8764,23.8764,23.8764C23.8764,23.8764,23.8764,0,23.8764,0C23.8764,0,23.8764,0,23.8764,0Z" fill="#000000" fill-opacity="1"/></g></g></mask></defs><g clip-path="url(#master_svg0_0_164)"><g mask="url(#master_svg1_0_166)"><g><g><path d="M19.006909227344057,4.088823579380377C17.55780922734406,1.5881435793803766,14.984109227344057,0.06037757938037678,12.121939227344058,0.0019922493803767784C11.999749227344058,-0.0005259776196232218,11.876789227344057,-0.0005259776196232218,11.754559227344057,0.0019922493803767784C8.892459227344057,0.06037757938037678,6.318649227344057,1.5881435793803766,4.869559227344057,4.088823579380377C3.388384227344057,6.644913579380376,3.3478542273440572,9.715283579380378,4.761149227344058,12.302103579380377C4.761149227344058,12.302103579380377,10.681889227344058,23.139203579380375,10.681889227344058,23.139203579380375C10.684549227344057,23.144003579380374,10.687199227344056,23.148803579380377,10.689959227344058,23.153503579380377C10.950459227344059,23.606303579380377,11.417119227344056,23.876503579380376,11.938339227344057,23.876503579380376C12.459519227344057,23.876503579380376,12.926189227344057,23.606303579380377,13.186629227344058,23.153503579380377C13.189379227344057,23.148803579380377,13.192039227344058,23.144003579380374,13.194689227344057,23.139203579380375C13.194689227344057,23.139203579380375,19.115509227344056,12.302103579380377,19.115509227344056,12.302103579380377C20.528709227344056,9.715283579380378,20.488109227344058,6.644913579380376,19.006909227344057,4.088823579380377C19.006909227344057,4.088823579380377,19.006909227344057,4.088823579380377,19.006909227344057,4.088823579380377ZM11.938249227344057,10.819103579380378C10.086849227344057,10.819103579380378,8.580629227344058,9.312913579380378,8.580629227344058,7.461523579380377C8.580629227344058,5.610113579380377,10.086849227344057,4.103893579380377,11.938249227344057,4.103893579380377C13.789609227344057,4.103893579380377,15.295909227344058,5.610113579380377,15.295909227344058,7.461523579380377C15.295909227344058,9.312913579380378,13.789709227344057,10.819103579380378,11.938249227344057,10.819103579380378C11.938249227344057,10.819103579380378,11.938249227344057,10.819103579380378,11.938249227344057,10.819103579380378Z" fill="#D9D9D9" fill-opacity="1"/></g></g></g></g></svg>