<svg xmlns="http://www.w3.org/2000/svg" xmlns:xlink="http://www.w3.org/1999/xlink" fill="none" version="1.1" width="23.876441955566406" height="23.876441955566406" viewBox="0 0 23.876441955566406 23.876441955566406"><defs><clipPath id="master_svg0_0_180"><rect x="0" y="0" width="23.876441955566406" height="23.876441955566406" rx="0"/></clipPath><mask id="master_svg1_0_182" style="mask-type:alpha" maskUnits="userSpaceOnUse"><g><g><path d="M23.8764,0C23.8764,0,0,0,0,0C0,0,0,23.8764,0,23.8764C0,23.8764,23.8764,23.8764,23.8764,23.8764C23.8764,23.8764,23.8764,0,23.8764,0C23.8764,0,23.8764,0,23.8764,0Z" fill="#000000" fill-opacity="1"/></g></g></mask></defs><g clip-path="url(#master_svg0_0_180)"><g mask="url(#master_svg1_0_182)"><g><g><path d="M21.9607,15.6722C20.4988,15.6722,19.0634,15.4436,17.7033,14.9941C17.0369,14.7667,16.2175,14.9753,15.8107,15.393C15.8107,15.393,13.1261,17.4197,13.1261,17.4197C10.0126,15.7577,8.0948,13.8405,6.45553,10.7504C6.45553,10.7504,8.42253,8.13572,8.42253,8.13572C8.93358,7.62536,9.11688,6.87983,8.89727,6.18033C8.44586,4.81303,8.21654,3.3784,8.21654,1.91597C8.2166,0.859489,7.35711,0,6.30071,0C6.30071,0,1.91589,0,1.91589,0C0.859489,0,0,0.859489,0,1.91591C0,14.0251,9.85139,23.8764,21.9607,23.8764C23.017,23.8764,23.8764,23.0169,23.8764,21.9605C23.8764,21.9605,23.8764,17.588,23.8764,17.588C23.8764,16.5316,23.0169,15.6722,21.9607,15.6722C21.9607,15.6722,21.9607,15.6722,21.9607,15.6722Z" fill="#D9D9D9" fill-opacity="1"/></g></g></g></g></svg>