<svg width="48" height="48" viewBox="0 0 48 48" fill="none" xmlns="http://www.w3.org/2000/svg">
<path d="M17.1676 8.1801C20.2076 2.7267 21.7275 0 24 0C26.2725 0 27.7924 2.7267 30.8324 8.1801L31.6189 9.59096C32.4827 11.1406 32.9147 11.9155 33.5881 12.4267C34.2616 12.938 35.1004 13.1278 36.7779 13.5073L38.3051 13.8529C44.2083 15.1885 47.16 15.8564 47.8622 18.1146C48.5644 20.3727 46.5522 22.7258 42.5278 27.4318L41.4866 28.6493C40.343 29.9866 39.7712 30.6553 39.5139 31.4825C39.2567 32.3097 39.3431 33.2019 39.516 34.9861L39.6734 36.6105C40.2819 42.8894 40.5861 46.0289 38.7476 47.4245C36.9092 48.8202 34.1456 47.5477 28.6184 45.0028L27.1884 44.3444C25.6178 43.6212 24.8324 43.2596 24 43.2596C23.1676 43.2596 22.3822 43.6212 20.8116 44.3444L19.3816 45.0028C13.8544 47.5477 11.0908 48.8202 9.25236 47.4245C7.41389 46.0289 7.71811 42.8894 8.32655 36.6106L8.48396 34.9861C8.65686 33.2019 8.74331 32.3097 8.48607 31.4825C8.22883 30.6553 7.65702 29.9866 6.5134 28.6493L5.47223 27.4318C1.4478 22.7258 -0.564421 20.3727 0.13781 18.1146C0.840042 15.8564 3.79166 15.1885 9.69489 13.8529L11.2221 13.5073C12.8996 13.1278 13.7384 12.938 14.4119 12.4267C15.0853 11.9155 15.5173 11.1406 16.3811 9.59096L17.1676 8.1801Z" fill="url(#paint0_linear_6_50)"/>
<defs>
<linearGradient id="paint0_linear_6_50" x1="53" y1="54" x2="8.32654" y2="12.7347" gradientUnits="userSpaceOnUse">
<stop stop-color="#BB824A"/>
<stop offset="1" stop-color="#E9C775"/>
</linearGradient>
</defs>
</svg>
