<svg xmlns="http://www.w3.org/2000/svg" xmlns:xlink="http://www.w3.org/1999/xlink" fill="none" version="1.1" width="23.876441955566406" height="23.876441955566406" viewBox="0 0 23.876441955566406 23.876441955566406"><defs><clipPath id="master_svg0_0_218"><rect x="0" y="0" width="23.876441955566406" height="23.876441955566406" rx="0"/></clipPath><mask id="master_svg1_0_220" style="mask-type:alpha" maskUnits="userSpaceOnUse"><g><g><path d="M23.8764,0C23.8764,0,0,0,0,0C0,0,0,23.8764,0,23.8764C0,23.8764,23.8764,23.8764,23.8764,23.8764C23.8764,23.8764,23.8764,0,23.8764,0C23.8764,0,23.8764,0,23.8764,0Z" fill="#000000" fill-opacity="1"/></g></g></mask></defs><g clip-path="url(#master_svg0_0_218)"><g mask="url(#master_svg1_0_220)"><g><g><path d="M9.368456939593099,15.102791738839914C9.368456939593099,15.102791738839914,8.973496939593097,20.658091738839914,8.973496939593097,20.658091738839914C9.538576939593097,20.658091738839914,9.783306939593098,20.41529173883991,10.076756939593098,20.123891738839912C10.076756939593098,20.123891738839912,12.726056939593098,17.591891738839912,12.726056939593098,17.591891738839912C12.726056939593098,17.591891738839912,18.2157569395931,21.61209173883991,18.2157569395931,21.61209173883991C19.222456939593098,22.173191738839915,19.931856939593096,21.877791738839914,20.2034569395931,20.685891738839914C20.2034569395931,20.685891738839914,23.806656939593097,3.8013217388399134,23.806656939593097,3.8013217388399134C24.1260569395931,2.3130347388399133,23.2694569395931,1.730045738839913,22.288556939593096,2.095146738839913C22.288556939593096,2.095146738839913,1.1081969395930982,10.204181738839914,1.1081969395930982,10.204181738839914C-0.33732006040690193,10.765281738839914,-0.31543506040690195,11.571111738839914,0.8624709395930981,11.936221738839913C0.8624709395930981,11.936221738839913,6.277446939593098,13.620491738839913,6.277446939593098,13.620491738839913C6.277446939593098,13.620491738839913,18.855356939593097,5.750241738839913,18.855356939593097,5.750241738839913C19.4472569395931,5.3582617388399125,19.9855569395931,5.575151738839914,19.542756939593097,5.967111738839913C19.542756939593097,5.967111738839913,9.368456939593099,15.102791738839914,9.368456939593099,15.102791738839914C9.368456939593099,15.102791738839914,9.368456939593099,15.102791738839914,9.368456939593099,15.102791738839914Z" fill="#D9D9D9" fill-opacity="1"/></g></g></g></g></svg>