<svg width="476" height="230" viewBox="0 0 476 230" fill="none" xmlns="http://www.w3.org/2000/svg">
<g clip-path="url(#clip0_270_5)">
<path d="M31.7168 0H444.036C444.036 0 443.085 10.4267 452.6 21.16C462.749 31.28 475.753 30.6667 475.753 30.6667V199.333C475.753 199.333 463.701 198.72 454.186 207.613C443.719 216.507 444.036 230 444.036 230H31.7168V0Z" fill="#F6F6F6"/>
<path d="M444.037 230H31.7169C31.7169 230 32.6684 219.573 23.1533 208.84C13.0039 198.72 0 199.333 0 199.333V30.6667C0 30.6667 12.0524 31.28 21.5675 22.3867C32.0341 13.4933 31.7169 0 31.7169 0H444.037V230Z" fill="#F6F6F6"/>
<mask id="mask0_270_5" style="mask-type:luminance" maskUnits="userSpaceOnUse" x="15" y="15" width="445" height="200">
<path d="M460 42.2187C460 42.2187 447.857 42.748 438.38 34.0143C429.495 24.7513 430.383 15.7529 430.383 15.7529H45.3696C45.3696 15.7529 45.6658 27.3979 35.8923 35.0729C27.0074 42.748 15.7532 42.2187 15.7532 42.2187V187.78C15.7532 187.78 27.8959 187.251 37.3732 195.985C46.2581 205.248 45.3696 214.246 45.3696 214.246H430.383C430.383 214.246 430.087 202.601 439.861 194.926C448.745 187.251 460 187.78 460 187.78V42.2187Z" fill="white"/>
</mask>
<g mask="url(#mask0_270_5)">
<path d="M438.38 34.0147L437.621 34.7417L437.644 34.7651L437.668 34.7871L438.38 34.0147ZM460 42.2191H461.05V41.1221L459.953 41.1698L460 42.2191ZM45.3695 15.7534V14.7031H44.2922L44.3196 15.78L45.3695 15.7534ZM430.383 15.7534L431.428 15.8566L431.543 14.7031H430.383V15.7534ZM460 187.781L459.95 188.83L461.05 188.881V187.781H460ZM439.86 194.927L440.51 195.752L440.528 195.737L440.547 195.722L439.86 194.927ZM430.383 214.247V215.297H431.461L431.433 214.22L430.383 214.247ZM45.3695 214.247L44.3244 214.144L44.2105 215.297H45.3695V214.247ZM37.3731 195.985L38.1311 195.258L38.1086 195.235L38.0848 195.213L37.3731 195.985ZM15.7531 187.781H14.7029V188.878L15.7989 188.83L15.7531 187.781ZM15.7531 42.2191L15.8025 41.17L14.7029 41.1184V42.2191H15.7531ZM35.8923 35.0734L35.2437 34.2474L35.2243 34.2626L35.2058 34.2785L35.8923 35.0734ZM437.668 34.7871C442.58 39.3138 448.171 41.4295 452.51 42.4161C454.683 42.9101 456.553 43.1234 457.883 43.2131C458.549 43.2581 459.082 43.2723 459.451 43.275C459.636 43.2764 459.781 43.2749 459.881 43.2729C459.931 43.272 459.97 43.2709 459.998 43.2701C460.011 43.2697 460.023 43.2692 460.03 43.2689C460.034 43.2688 460.037 43.2687 460.04 43.2686C460.042 43.2685 460.043 43.2685 460.044 43.2684C460.044 43.2684 460.044 43.2684 460.045 43.2684C460.045 43.2684 460.046 43.2684 460 42.2191C459.953 41.1698 459.954 41.1698 459.954 41.1698C459.954 41.1698 459.953 41.1699 459.951 41.1699C459.947 41.1701 459.941 41.1703 459.931 41.1707C459.912 41.1713 459.882 41.1721 459.841 41.1729C459.758 41.1744 459.633 41.1758 459.467 41.1745C459.135 41.1721 458.646 41.1594 458.025 41.1175C456.783 41.0337 455.025 40.8334 452.977 40.368C448.876 39.4358 443.657 37.4494 439.092 33.2424L437.668 34.7871ZM45.3695 16.8036H430.383V14.7031H45.3695V16.8036ZM430.383 15.7534C429.338 15.6501 429.338 15.6507 429.338 15.6514C429.338 15.6516 429.338 15.6522 429.338 15.6527C429.338 15.6538 429.337 15.6549 429.337 15.6562C429.337 15.6588 429.337 15.6619 429.336 15.6656C429.336 15.6729 429.335 15.6825 429.334 15.6942C429.332 15.7175 429.33 15.7496 429.328 15.79C429.323 15.8708 429.316 15.9849 429.313 16.1305C429.305 16.4216 429.306 16.8381 429.335 17.363C429.394 18.4124 429.569 19.8965 430.034 21.6754C430.963 25.239 433.043 29.9684 437.621 34.7417L439.138 33.2878C434.831 28.798 432.913 24.3967 432.066 21.1454C431.641 19.5168 431.484 18.1723 431.431 17.2452C431.406 16.7816 431.406 16.4229 431.412 16.1857C431.416 16.0671 431.42 15.9789 431.424 15.9234C431.425 15.8956 431.427 15.8759 431.428 15.8647C431.428 15.8591 431.428 15.8556 431.428 15.8542C431.428 15.8544 431.428 15.8554 431.428 15.8555C431.428 15.8561 431.428 15.8566 430.383 15.7534ZM458.949 42.2191V187.781H461.05V42.2191H458.949ZM460 187.781C460.049 186.732 460.049 186.732 460.048 186.732C460.047 186.732 460.045 186.732 460.044 186.732C460.042 186.732 460.039 186.732 460.035 186.732C460.027 186.731 460.018 186.731 460.005 186.729C459.979 186.729 459.943 186.727 459.896 186.726C459.803 186.724 459.669 186.722 459.497 186.723C459.153 186.723 458.66 186.733 458.041 186.769C456.804 186.842 455.067 187.021 453.045 187.448C449.008 188.299 443.791 190.144 439.174 194.131L440.547 195.722C444.814 192.034 449.667 190.307 453.479 189.503C455.381 189.102 457.013 188.934 458.164 188.867C458.739 188.832 459.194 188.824 459.501 188.824C459.654 188.823 459.77 188.825 459.846 188.827C459.884 188.828 459.912 188.829 459.929 188.829C459.939 188.829 459.945 188.83 459.948 188.83C459.95 188.83 459.951 188.83 459.951 188.83C459.95 188.83 459.95 188.83 460 187.781ZM439.211 194.101C434.109 198.108 431.641 203.149 430.45 207.166C429.854 209.175 429.576 210.936 429.445 212.2C429.38 212.832 429.352 213.341 429.34 213.696C429.334 213.875 429.332 214.014 429.332 214.111C429.332 214.16 429.332 214.198 429.333 214.226C429.333 214.239 429.333 214.25 429.333 214.258C429.333 214.261 429.333 214.265 429.333 214.268C429.333 214.269 429.333 214.27 429.333 214.271C429.333 214.272 429.333 214.272 429.333 214.272C429.333 214.273 429.333 214.273 430.383 214.247C431.433 214.22 431.433 214.22 431.433 214.22C431.433 214.22 431.433 214.22 431.433 214.218C431.433 214.215 431.433 214.209 431.432 214.2C431.432 214.183 431.432 214.155 431.432 214.116C431.432 214.04 431.434 213.921 431.44 213.766C431.449 213.455 431.474 212.995 431.534 212.415C431.654 211.255 431.911 209.626 432.464 207.763C433.568 204.039 435.838 199.42 440.51 195.752L439.211 194.101ZM430.383 213.196H45.3695V215.297H430.383V213.196ZM38.0848 195.213C33.1727 190.686 27.5819 188.571 23.242 187.583C21.0695 187.09 19.2003 186.877 17.8692 186.786C17.2033 186.742 16.6709 186.727 16.3011 186.725C16.1162 186.723 15.9719 186.725 15.8717 186.727C15.8217 186.727 15.7826 186.728 15.7551 186.729C15.7413 186.731 15.7304 186.731 15.7224 186.731C15.7185 186.732 15.7152 186.732 15.7127 186.732C15.7114 186.732 15.7104 186.732 15.7094 186.732C15.709 186.732 15.7085 186.732 15.7083 186.732C15.7078 186.732 15.7073 186.732 15.7531 187.781C15.7989 188.83 15.7992 188.83 15.7989 188.83C15.7993 188.83 15.7995 188.83 15.8014 188.83C15.8052 188.83 15.8119 188.83 15.8214 188.829C15.8404 188.829 15.8707 188.828 15.9119 188.827C15.9942 188.826 16.1201 188.824 16.2857 188.826C16.6169 188.828 17.1072 188.84 17.7277 188.882C18.9696 188.966 20.7285 189.166 22.7763 189.632C26.877 190.564 32.0962 192.551 36.6614 196.757L38.0848 195.213ZM45.3695 214.247C46.4147 214.349 46.4147 214.349 46.4148 214.348L46.4149 214.347C46.415 214.346 46.4152 214.345 46.4153 214.343C46.4155 214.341 46.4158 214.338 46.4161 214.335C46.4168 214.327 46.4177 214.317 46.4186 214.305C46.4205 214.282 46.4229 214.251 46.4254 214.21C46.4306 214.129 46.4364 214.014 46.4403 213.869C46.4479 213.579 46.4476 213.162 46.4181 212.637C46.3592 211.587 46.1833 210.103 45.7194 208.324C44.7902 204.761 42.7095 200.032 38.1311 195.258L36.6152 196.712C40.9217 201.202 42.8391 205.603 43.687 208.855C44.1116 210.482 44.2689 211.828 44.321 212.755C44.347 213.218 44.3467 213.576 44.3405 213.814C44.3374 213.932 44.3328 214.021 44.3293 214.076C44.3275 214.105 44.3259 214.124 44.3251 214.135C44.3246 214.14 44.3243 214.145 44.3241 214.146C44.3241 214.147 44.324 214.147 44.3241 214.146C44.3241 214.146 44.3241 214.146 44.3243 214.145C44.3244 214.144 44.3244 214.144 45.3695 214.247ZM16.8033 187.781V42.2191H14.7029V187.781H16.8033ZM15.7531 42.2191C15.7037 43.2682 15.7042 43.2682 15.7046 43.2682C15.7048 43.2682 15.7053 43.2683 15.7057 43.2683C15.7066 43.2683 15.7076 43.2684 15.7088 43.2684C15.7111 43.2685 15.7141 43.2686 15.7179 43.2688C15.7254 43.2691 15.7355 43.2695 15.7483 43.27C15.774 43.2709 15.8102 43.272 15.8568 43.2731C15.9499 43.2753 16.0839 43.2773 16.2557 43.2771C16.5992 43.2766 17.0935 43.2667 17.7121 43.2303C18.9485 43.1575 20.6857 42.9781 22.7074 42.552C26.7446 41.7011 31.9617 39.8565 36.5788 35.8682L35.2058 34.2785C30.9379 37.9653 26.0855 39.6935 22.2743 40.4967C20.3718 40.8977 18.7402 41.0656 17.5887 41.1335C17.0134 41.1673 16.5592 41.1761 16.2524 41.1767C16.0991 41.1769 15.9827 41.1751 15.9065 41.1733C15.8684 41.1723 15.8405 41.1714 15.8231 41.1709C15.8142 41.1706 15.8081 41.1702 15.8047 41.1701C15.803 41.17 15.8029 41.17 15.8025 41.17C15.8023 41.17 15.8023 41.17 15.8025 41.17C15.8028 41.17 15.8025 41.17 15.7531 42.2191ZM36.5409 35.8994C41.6436 31.8922 44.1118 26.8508 45.3029 22.8338C45.8984 20.8249 46.1775 19.064 46.3078 17.8006C46.373 17.1682 46.4011 16.6589 46.4128 16.3034C46.4187 16.1254 46.4205 15.986 46.4207 15.8886C46.4208 15.8399 46.4206 15.8018 46.4203 15.7747C46.4201 15.761 46.4199 15.7502 46.4198 15.7422C46.4197 15.7382 46.4197 15.7349 46.4196 15.7323C46.4196 15.731 46.4196 15.7299 46.4195 15.729C46.4195 15.7285 46.4195 15.7279 46.4195 15.7276C46.4195 15.7271 46.4195 15.7267 45.3695 15.7534C44.3196 15.78 44.3196 15.7803 44.3196 15.78C44.3196 15.78 44.3196 15.779 44.3196 15.7789C44.3196 15.7788 44.3196 15.7786 44.3196 15.7789C44.3196 15.7791 44.3196 15.7798 44.3196 15.7814C44.3197 15.7847 44.3198 15.7906 44.3199 15.7994C44.3202 15.8168 44.3204 15.8449 44.3203 15.8834C44.3201 15.9604 44.3187 16.0785 44.3135 16.2341C44.3032 16.5453 44.2781 17.0058 44.2184 17.5851C44.0989 18.7448 43.841 20.3749 43.289 22.2366C42.1848 25.9608 39.9143 30.5794 35.2437 34.2474L36.5409 35.8994Z" fill="#00544F"/>
</g>
</g>
<defs>
<clipPath id="clip0_270_5">
<rect width="475.753" height="230" fill="white"/>
</clipPath>
</defs>
</svg>
